<?xml version="1.0" encoding="iso-8859-1"?>
<!-- Uploaded to: SVG Repo, www.svgrepo.com, Generator: SVG Repo Mixer Tools -->
<!DOCTYPE svg PUBLIC "-//W3C//DTD SVG 1.1//EN" "http://www.w3.org/Graphics/SVG/1.1/DTD/svg11.dtd">
<svg fill="#000000" version="1.1" id="Capa_1" xmlns="http://www.w3.org/2000/svg" xmlns:xlink="http://www.w3.org/1999/xlink" 
	 width="800px" height="800px" viewBox="0 0 168.1 168.1" xml:space="preserve"
	>
<g>
	<path d="M86.065,49.242c0,0,0.393,6.197-0.401,6.197c-0.793,0-1.688-0.572-4.022,0.049c-0.757,0.052-0.55-5.915-0.404-6.246
		c0.145-0.332-5.982,1.4-7.238,13.699c-3.941-1.069-4.149-2.079-14.479-4.027c2.094-1.891,1.384-5.491,12.656-10.025
		C41.896,48.457,8.22,74.009,0,112.104c7.118-5.669,28.914-18.331,32.974-18.331c4.063,0,8.63,0.416,12.067,13.504
		c6.705-3.786,28.498-15.464,38.96,12.083c9.446-27.573,34.627-15.617,38.255-12.897c1.991-4.173,5.269-15.678,12.869-11.891
		c7.587,3.393,27.688,12.077,32.975,19.146c-2.648-17.396-29.776-64.98-71.626-64.98c5.113,3.848,10.729,8.337,11.303,10.175
		c-5.854,0.53-12.241,3.31-13.664,4.027C93.905,61.754,90.923,49.696,86.065,49.242z"/>
</g>
</svg>